<?xml version="1.0" standalone="no"?>
<!DOCTYPE svg PUBLIC "-//W3C//DTD SVG 20010904//EN"
 "http://www.w3.org/TR/2001/REC-SVG-20010904/DTD/svg10.dtd">
<svg version="1.0" xmlns="http://www.w3.org/2000/svg"
 width="312.000000pt" height="161.000000pt" viewBox="0 0 312.000000 161.000000"
 preserveAspectRatio="xMidYMid meet">

<g transform="translate(0.000000,161.000000) scale(0.100000,-0.100000)"
fill="#000000" stroke="none">
<path d="M2020 1401 c0 -10 -64 -552 -85 -725 -14 -110 -14 -138 0 -124 4 3
90 508 139 816 2 14 -3 26 -15 32 -22 12 -39 13 -39 1z"/>
<path d="M1785 1306 c-17 -13 -18 -17 -1 -137 61 -443 102 -704 111 -700 6 2
9 11 8 20 -2 9 -19 183 -38 386 -29 305 -39 407 -45 443 -1 6 -18 1 -35 -12z"/>
<path d="M231 1195 c-53 -17 -87 -47 -102 -92 -25 -78 10 -132 124 -189 90
-45 107 -60 107 -95 0 -70 -107 -78 -181 -12 -15 12 -20 10 -42 -19 -31 -39
-26 -47 46 -83 129 -64 267 -1 267 122 0 75 -24 103 -130 154 -71 34 -110 65
-110 86 0 25 39 53 76 53 45 0 74 -15 74 -40 0 -17 7 -20 40 -20 39 0 40 1 40
36 0 45 -40 87 -96 103 -48 13 -58 13 -113 -4z"/>
<path d="M1690 972 c0 -11 7 -22 15 -26 8 -3 15 -17 15 -31 0 -23 -3 -25 -22
-18 -44 15 -88 8 -116 -21 -23 -22 -27 -35 -27 -80 0 -76 26 -110 87 -114 31
-2 51 2 61 12 13 14 16 14 21 1 7 -20 65 -20 73 0 3 9 -2 21 -11 28 -13 10
-16 36 -18 137 l-3 125 -37 3 c-32 3 -38 0 -38 -16z m14 -134 c34 -48 8 -118
-43 -118 -37 0 -56 23 -56 70 0 21 7 45 14 54 20 24 67 20 85 -6z"/>
<path d="M2050 956 c0 -13 5 -26 10 -28 6 -2 25 -59 43 -128 l32 -125 35 0 35
0 27 95 c15 52 27 97 28 100 1 5 16 -41 45 -142 16 -56 18 -58 50 -58 30 0 33
3 40 38 13 73 58 222 66 222 5 0 9 12 9 26 0 23 -3 25 -32 22 l-33 -3 -26
-108 c-15 -59 -29 -110 -31 -113 -3 -2 -18 46 -34 108 -25 97 -32 113 -51 116
-18 3 -24 -5 -38 -55 -58 -203 -53 -199 -82 -59 -19 97 -31 116 -69 116 -19 0
-24 -5 -24 -24z"/>
<path d="M2520 955 c0 -20 5 -25 25 -25 20 0 25 5 25 25 0 20 -5 25 -25 25
-20 0 -25 -5 -25 -25z"/>
<path d="M2675 955 c-14 -13 -25 -33 -25 -45 0 -11 -7 -20 -15 -20 -8 0 -15
-9 -15 -20 0 -11 7 -20 15 -20 12 0 15 -17 15 -90 0 -89 0 -90 25 -90 24 0 24
2 27 88 3 82 4 87 26 90 33 5 30 42 -4 42 -32 0 -27 20 9 38 16 8 27 21 27 33
0 29 -54 26 -85 -6z"/>
<path d="M570 893 c-56 -28 -72 -72 -67 -175 4 -70 10 -99 36 -154 115 -246
422 -398 806 -398 127 0 167 4 261 26 153 36 264 86 369 166 90 68 160 153
183 221 16 45 15 51 -5 51 -12 0 -30 -22 -51 -64 -33 -64 -126 -166 -178 -195
-16 -9 -31 -19 -34 -23 -10 -13 -155 -76 -210 -92 -229 -65 -430 -65 -675 -1
-33 9 -70 23 -82 31 -12 7 -28 14 -35 15 -46 2 -249 164 -263 210 -4 11 -10
19 -14 19 -19 0 -54 108 -59 177 l-5 72 84 3 84 3 -3 35 c-5 70 -77 106 -142
73z m71 -33 c38 -21 23 -40 -31 -40 -47 0 -50 1 -40 19 15 30 40 37 71 21z"/>
<path d="M825 896 c-62 -28 -87 -88 -61 -149 18 -43 52 -67 99 -69 48 -2 99
20 95 41 -4 16 -10 16 -71 4 -44 -9 -77 20 -77 66 0 24 7 44 18 54 23 21 71
22 78 2 4 -8 15 -15 25 -15 22 0 27 41 7 58 -23 18 -82 23 -113 8z"/>
<path d="M1064 896 c-102 -45 -95 -185 12 -215 33 -9 84 -1 110 17 25 17 44
60 44 98 0 52 -28 90 -78 104 -46 12 -50 12 -88 -4z m96 -56 c43 -43 11 -120
-49 -120 -32 0 -71 39 -71 70 0 10 9 29 21 44 25 32 70 35 99 6z"/>
<path d="M1373 891 c-26 -16 -32 -17 -37 -5 -3 8 -19 14 -41 14 -28 0 -35 -4
-35 -19 0 -10 7 -21 15 -25 12 -4 15 -24 15 -91 0 -84 0 -85 25 -85 24 0 25 2
25 64 0 53 4 70 23 92 19 22 29 26 50 20 26 -6 27 -9 27 -76 0 -39 0 -73 -1
-76 -1 -12 25 -24 54 -24 20 0 27 5 27 20 0 11 -4 20 -10 20 -5 0 -10 26 -10
58 0 78 -8 100 -41 117 -37 19 -48 19 -86 -4z"/>
<path d="M2490 871 c0 -10 7 -21 15 -25 12 -4 15 -24 15 -91 l0 -85 40 0 c33
0 40 3 40 20 0 11 -7 20 -15 20 -12 0 -15 17 -15 90 l0 90 -40 0 c-33 0 -40
-4 -40 -19z"/>
<path d="M2813 868 c-27 -30 -43 -62 -43 -87 0 -38 32 -88 67 -105 42 -20 69
-20 110 2 27 15 30 19 19 34 -8 11 -17 14 -27 7 -24 -15 -75 -10 -92 9 -31 35
-21 42 58 42 l75 0 0 28 c0 26 -22 69 -44 84 -6 4 -32 8 -57 8 -35 0 -50 -5
-66 -22z m107 -38 c12 -22 -9 -30 -58 -22 -37 5 -37 21 -2 39 27 13 47 8 60
-17z"/>
</g>
</svg>
